<?xml version="1.0" encoding="UTF-8" standalone="no"?>
<!DOCTYPE svg PUBLIC "-//W3C//DTD SVG 1.1//EN"
 "http://www.w3.org/Graphics/SVG/1.1/DTD/svg11.dtd">
<!-- Generated by graphviz version 2.26.3 (20100126.1600)
 -->
<!-- Title: test Pages: 1 -->
<svg width="3480pt" height="342pt"
 viewBox="0.00 0.00 3480.00 342.00" xmlns="http://www.w3.org/2000/svg" xmlns:xlink="http://www.w3.org/1999/xlink">
<g id="graph1" class="graph" transform="scale(1 1) rotate(0) translate(4 338)">
<title>test</title>
<polygon fill="white" stroke="white" points="-4,5 -4,-338 3477,-338 3477,5 -4,5"/>
<!-- node1 -->
<g id="node1" class="node"><title>node1</title>
<a xlink:href="http://libraries.stackexchange.com/tags/academic-libraries" xlink:title="academic&#45;libraries">
<ellipse fill="none" stroke="gray" cx="541" cy="-241" rx="98.9949" ry="18.3848"/>
<text text-anchor="middle" x="541" y="-237.4" font-family="Times Roman,serif" font-size="14.00">academic&#45;libraries</text>
</a>
</g>
<!-- node2 -->
<g id="node2" class="node"><title>node2</title>
<a xlink:href="http://libraries.stackexchange.com/tags/public-libraries" xlink:title="public&#45;libraries">
<ellipse fill="none" stroke="gray" cx="406" cy="-167" rx="82.0244" ry="18.3848"/>
<text text-anchor="middle" x="406" y="-163.4" font-family="Times Roman,serif" font-size="14.00">public&#45;libraries</text>
</a>
</g>
<!-- node1&#45;&gt;node2 -->
<g id="edge2" class="edge"><title>node1&#45;&gt;node2</title>
<path fill="none" stroke="black" d="M509.007,-223.463C490.21,-213.159 466.277,-200.041 446.212,-189.042"/>
<polygon fill="black" stroke="black" points="447.749,-185.893 437.298,-184.156 444.384,-192.032 447.749,-185.893"/>
</g>
<!-- node3 -->
<g id="node3" class="node"><title>node3</title>
<a xlink:href="http://libraries.stackexchange.com/tags/school-libraries" xlink:title="school&#45;libraries">
<ellipse fill="none" stroke="gray" cx="590" cy="-167" rx="84.1457" ry="18.3848"/>
<text text-anchor="middle" x="590" y="-163.4" font-family="Times Roman,serif" font-size="14.00">school&#45;libraries</text>
</a>
</g>
<!-- node1&#45;&gt;node3 -->
<g id="edge4" class="edge"><title>node1&#45;&gt;node3</title>
<path fill="none" stroke="black" d="M553.365,-222.327C559.095,-213.672 566.011,-203.229 572.283,-193.757"/>
<polygon fill="black" stroke="black" points="575.206,-195.681 577.809,-185.411 569.37,-191.816 575.206,-195.681"/>
</g>
<!-- archives -->
<g id="node4" class="node"><title>archives</title>
<a xlink:href="http://libraries.stackexchange.com/tags/archives" xlink:title="archives">
<ellipse fill="none" stroke="gray" cx="748" cy="-241" rx="51.8276" ry="18.3848"/>
<text text-anchor="middle" x="748" y="-237.4" font-family="Times Roman,serif" font-size="14.00">archives</text>
</a>
</g>
<!-- archiving -->
<g id="node5" class="node"><title>archiving</title>
<a xlink:href="http://libraries.stackexchange.com/tags/archiving" xlink:title="archiving">
<ellipse fill="none" stroke="gray" cx="748" cy="-167" rx="56.0679" ry="18.3848"/>
<text text-anchor="middle" x="748" y="-163.4" font-family="Times Roman,serif" font-size="14.00">archiving</text>
</a>
</g>
<!-- archives&#45;&gt;archiving -->
<g id="edge6" class="edge"><title>archives&#45;&gt;archiving</title>
<path fill="none" stroke="black" d="M742.048,-222.327C741.277,-214.202 741.065,-204.501 741.411,-195.507"/>
<polygon fill="black" stroke="black" points="744.911,-195.619 742.073,-185.411 737.926,-195.16 744.911,-195.619"/>
</g>
<!-- archives&#45;&gt;archiving -->
<g id="edge8" class="edge"><title>archives&#45;&gt;archiving</title>
<path fill="none" stroke="black" stroke-width="2" d="M753.952,-222.327C754.723,-214.202 754.935,-204.501 754.589,-195.507"/>
<polygon fill="black" stroke="black" points="758.074,-195.16 753.927,-185.411 751.089,-195.619 758.074,-195.16"/>
</g>
<!-- node4 -->
<g id="node6" class="node"><title>node4</title>
<a xlink:href="http://libraries.stackexchange.com/tags/digital-collections" xlink:title="digital&#45;collections">
<ellipse fill="none" stroke="gray" cx="951" cy="-19" rx="94.9596" ry="18.3848"/>
<text text-anchor="middle" x="951" y="-15.4" font-family="Times Roman,serif" font-size="14.00">digital&#45;collections</text>
</a>
</g>
<!-- archives&#45;&gt;node4 -->
<g id="edge10" class="edge"><title>archives&#45;&gt;node4</title>
<path fill="none" stroke="black" d="M769.921,-224.077C782.94,-213.637 799.491,-199.668 813,-186 858.823,-139.64 905.851,-79.5099 931.451,-45.5031"/>
<polygon fill="black" stroke="black" points="934.293,-47.5473 937.484,-37.4444 928.689,-43.3523 934.293,-47.5473"/>
</g>
<!-- node5 -->
<g id="node7" class="node"><title>node5</title>
<a xlink:href="http://libraries.stackexchange.com/tags/special-collections" xlink:title="special&#45;collections">
<ellipse fill="none" stroke="gray" cx="970" cy="-167" rx="97.7889" ry="18.3848"/>
<text text-anchor="middle" x="970" y="-163.4" font-family="Times Roman,serif" font-size="14.00">special&#45;collections</text>
</a>
</g>
<!-- archives&#45;&gt;node5 -->
<g id="edge12" class="edge"><title>archives&#45;&gt;node5</title>
<path fill="none" stroke="black" d="M786.163,-228.279C820.751,-216.75 872.231,-199.59 911.923,-186.359"/>
<polygon fill="black" stroke="black" points="913.105,-189.654 921.485,-183.172 910.891,-183.014 913.105,-189.654"/>
</g>
<!-- preservation -->
<g id="node8" class="node"><title>preservation</title>
<a xlink:href="http://libraries.stackexchange.com/tags/preservation" xlink:title="preservation">
<ellipse fill="none" stroke="gray" cx="567" cy="-19" rx="73.0388" ry="18.3848"/>
<text text-anchor="middle" x="567" y="-15.4" font-family="Times Roman,serif" font-size="14.00">preservation</text>
</a>
</g>
<!-- archiving&#45;&gt;preservation -->
<g id="edge16" class="edge"><title>archiving&#45;&gt;preservation</title>
<path fill="none" stroke="black" d="M714.592,-152.017C694.52,-142.172 669.066,-128.148 649,-112 624.789,-92.5158 601.805,-65.4291 586.366,-45.5122"/>
<polygon fill="black" stroke="black" points="589.074,-43.2911 580.229,-37.4583 583.506,-47.5337 589.074,-43.2911"/>
</g>
<!-- node6 -->
<g id="node9" class="node"><title>node6</title>
<a xlink:href="http://libraries.stackexchange.com/tags/digital-archiving" xlink:title="digital&#45;archiving">
<ellipse fill="none" stroke="gray" cx="748" cy="-19" rx="89.8026" ry="18.3848"/>
<text text-anchor="middle" x="748" y="-15.4" font-family="Times Roman,serif" font-size="14.00">digital&#45;archiving</text>
</a>
</g>
<!-- archiving&#45;&gt;node6 -->
<g id="edge14" class="edge"><title>archiving&#45;&gt;node6</title>
<path fill="none" stroke="black" stroke-width="2" d="M709.243,-153.477C690.51,-144.753 669.791,-131.355 659,-112 650.775,-97.249 650.775,-88.751 659,-74 667.058,-59.5485 680.65,-48.4177 694.818,-40.0741"/>
<polygon fill="black" stroke="black" points="696.574,-43.1028 703.669,-35.2345 693.216,-36.9609 696.574,-43.1028"/>
</g>
<!-- node7 -->
<g id="node10" class="node"><title>node7</title>
<a xlink:href="http://libraries.stackexchange.com/tags/web-archiving" xlink:title="web&#45;archiving">
<ellipse fill="none" stroke="gray" cx="748" cy="-93" rx="80.1095" ry="18.3848"/>
<text text-anchor="middle" x="748" y="-89.4" font-family="Times Roman,serif" font-size="14.00">web&#45;archiving</text>
</a>
</g>
<!-- archiving&#45;&gt;node7 -->
<g id="edge18" class="edge"><title>archiving&#45;&gt;node7</title>
<path fill="none" stroke="black" stroke-width="2" d="M742.048,-148.327C741.283,-140.264 741.068,-130.648 741.403,-121.711"/>
<polygon fill="black" stroke="black" points="744.9,-121.871 742.048,-111.667 737.914,-121.422 744.9,-121.871"/>
</g>
<!-- node7&#45;&gt;archiving -->
<g id="edge94" class="edge"><title>node7&#45;&gt;archiving</title>
<path fill="none" stroke="black" d="M753.952,-111.667C754.717,-119.729 754.932,-129.345 754.597,-138.282"/>
<polygon fill="black" stroke="black" points="751.1,-138.123 753.952,-148.327 758.086,-138.572 751.1,-138.123"/>
</g>
<!-- node7&#45;&gt;node4 -->
<g id="edge98" class="edge"><title>node7&#45;&gt;node4</title>
<path fill="none" stroke="black" d="M791.051,-77.3065C821.77,-66.1084 863.325,-50.9605 896.379,-38.9111"/>
<polygon fill="black" stroke="black" points="897.704,-42.1535 905.9,-35.4402 895.307,-35.5768 897.704,-42.1535"/>
</g>
<!-- node7&#45;&gt;preservation -->
<g id="edge102" class="edge"><title>node7&#45;&gt;preservation</title>
<path fill="none" stroke="black" d="M708.279,-76.7604C680.885,-65.5607 644.314,-50.6089 615.243,-38.7238"/>
<polygon fill="black" stroke="black" points="616.277,-35.3653 605.696,-34.8206 613.628,-41.8447 616.277,-35.3653"/>
</g>
<!-- node7&#45;&gt;node6 -->
<g id="edge96" class="edge"><title>node7&#45;&gt;node6</title>
<path fill="none" stroke="black" d="M748,-74.3267C748,-66.2639 748,-56.6477 748,-47.7115"/>
<polygon fill="black" stroke="black" points="751.5,-47.6673 748,-37.6674 744.5,-47.6674 751.5,-47.6673"/>
</g>
<!-- internet -->
<g id="node32" class="node"><title>internet</title>
<a xlink:href="http://libraries.stackexchange.com/tags/internet" xlink:title="internet">
<ellipse fill="none" stroke="gray" cx="1688" cy="-19" rx="51.1176" ry="18.3848"/>
<text text-anchor="middle" x="1688" y="-15.4" font-family="Times Roman,serif" font-size="14.00">internet</text>
</a>
</g>
<!-- node7&#45;&gt;internet -->
<g id="edge100" class="edge"><title>node7&#45;&gt;internet</title>
<path fill="none" stroke="black" d="M824.128,-87.007C1006,-72.6893 1462.85,-36.7244 1627.59,-23.7557"/>
<polygon fill="black" stroke="black" points="1628.32,-27.2093 1638.01,-22.9352 1627.77,-20.2309 1628.32,-27.2093"/>
</g>
<!-- bibliometrics -->
<g id="node11" class="node"><title>bibliometrics</title>
<a xlink:href="http://libraries.stackexchange.com/tags/bibliometrics" xlink:title="bibliometrics">
<ellipse fill="none" stroke="gray" cx="1749" cy="-241" rx="72.832" ry="18.3848"/>
<text text-anchor="middle" x="1749" y="-237.4" font-family="Times Roman,serif" font-size="14.00">bibliometrics</text>
</a>
</g>
<!-- citations -->
<g id="node12" class="node"><title>citations</title>
<a xlink:href="http://libraries.stackexchange.com/tags/citations" xlink:title="citations">
<ellipse fill="none" stroke="gray" cx="1749" cy="-167" rx="53.033" ry="18.3848"/>
<text text-anchor="middle" x="1749" y="-163.4" font-family="Times Roman,serif" font-size="14.00">citations</text>
</a>
</g>
<!-- bibliometrics&#45;&gt;citations -->
<g id="edge20" class="edge"><title>bibliometrics&#45;&gt;citations</title>
<path fill="none" stroke="black" stroke-width="2" d="M1749,-222.327C1749,-214.264 1749,-204.648 1749,-195.711"/>
<polygon fill="black" stroke="black" points="1752.5,-195.667 1749,-185.667 1745.5,-195.667 1752.5,-195.667"/>
</g>
<!-- metadata -->
<g id="node16" class="node"><title>metadata</title>
<a xlink:href="http://libraries.stackexchange.com/tags/metadata" xlink:title="metadata">
<ellipse fill="none" stroke="gray" cx="1790" cy="-93" rx="58.1882" ry="18.3848"/>
<text text-anchor="middle" x="1790" y="-89.4" font-family="Times Roman,serif" font-size="14.00">metadata</text>
</a>
</g>
<!-- citations&#45;&gt;metadata -->
<g id="edge28" class="edge"><title>citations&#45;&gt;metadata</title>
<path fill="none" stroke="black" d="M1759.13,-148.708C1763.91,-140.08 1769.72,-129.611 1774.99,-120.088"/>
<polygon fill="black" stroke="black" points="1778.05,-121.782 1779.84,-111.338 1771.93,-118.389 1778.05,-121.782"/>
</g>
<!-- cataloging -->
<g id="node13" class="node"><title>cataloging</title>
<a xlink:href="http://libraries.stackexchange.com/tags/cataloging" xlink:title="cataloging">
<ellipse fill="none" stroke="gray" cx="2055" cy="-167" rx="61.0181" ry="18.3848"/>
<text text-anchor="middle" x="2055" y="-163.4" font-family="Times Roman,serif" font-size="14.00">cataloging</text>
</a>
</g>
<!-- bibliographies -->
<g id="node14" class="node"><title>bibliographies</title>
<a xlink:href="http://libraries.stackexchange.com/tags/bibliographies" xlink:title="bibliographies">
<ellipse fill="none" stroke="gray" cx="1986" cy="-93" rx="77.9889" ry="18.3848"/>
<text text-anchor="middle" x="1986" y="-89.4" font-family="Times Roman,serif" font-size="14.00">bibliographies</text>
</a>
</g>
<!-- cataloging&#45;&gt;bibliographies -->
<g id="edge22" class="edge"><title>cataloging&#45;&gt;bibliographies</title>
<path fill="none" stroke="black" d="M2038.3,-149.087C2029.78,-139.952 2019.27,-128.679 2009.91,-118.642"/>
<polygon fill="black" stroke="black" points="2012.41,-116.189 2003.03,-111.262 2007.29,-120.963 2012.41,-116.189"/>
</g>
<!-- circulation -->
<g id="node15" class="node"><title>circulation</title>
<a xlink:href="http://libraries.stackexchange.com/tags/circulation" xlink:title="circulation">
<ellipse fill="none" stroke="gray" cx="2144" cy="-93" rx="62.2254" ry="18.3848"/>
<text text-anchor="middle" x="2144" y="-89.4" font-family="Times Roman,serif" font-size="14.00">circulation</text>
</a>
</g>
<!-- cataloging&#45;&gt;circulation -->
<g id="edge24" class="edge"><title>cataloging&#45;&gt;circulation</title>
<path fill="none" stroke="black" d="M2076.09,-149.463C2087.65,-139.857 2102.14,-127.803 2114.77,-117.302"/>
<polygon fill="black" stroke="black" points="2117.3,-119.752 2122.75,-110.668 2112.82,-114.37 2117.3,-119.752"/>
</g>
<!-- cataloging&#45;&gt;metadata -->
<g id="edge26" class="edge"><title>cataloging&#45;&gt;metadata</title>
<path fill="none" stroke="black" d="M2010.05,-154.447C1964.04,-141.601 1892.55,-121.638 1843.63,-107.975"/>
<polygon fill="black" stroke="black" points="1844.42,-104.563 1833.85,-105.245 1842.54,-111.306 1844.42,-104.563"/>
</g>
<!-- classification -->
<g id="node17" class="node"><title>classification</title>
<a xlink:href="http://libraries.stackexchange.com/tags/classification" xlink:title="classification">
<ellipse fill="none" stroke="gray" cx="2551" cy="-315" rx="72.832" ry="18.3848"/>
<text text-anchor="middle" x="2551" y="-311.4" font-family="Times Roman,serif" font-size="14.00">classification</text>
</a>
</g>
<!-- lcc -->
<g id="node18" class="node"><title>lcc</title>
<a xlink:href="http://libraries.stackexchange.com/tags/lcc" xlink:title="lcc">
<ellipse fill="none" stroke="gray" cx="2551" cy="-241" rx="27" ry="18.3848"/>
<text text-anchor="middle" x="2551" y="-237.4" font-family="Times Roman,serif" font-size="14.00">lcc</text>
</a>
</g>
<!-- classification&#45;&gt;lcc -->
<g id="edge30" class="edge"><title>classification&#45;&gt;lcc</title>
<path fill="none" stroke="black" stroke-width="2" d="M2551,-296.327C2551,-288.264 2551,-278.648 2551,-269.711"/>
<polygon fill="black" stroke="black" points="2554.5,-269.667 2551,-259.667 2547.5,-269.667 2554.5,-269.667"/>
</g>
<!-- node18 -->
<g id="node42" class="node"><title>node18</title>
<a xlink:href="http://libraries.stackexchange.com/tags/library-of-congress" xlink:title="library&#45;of&#45;congress">
<ellipse fill="none" stroke="gray" cx="2471" cy="-167" rx="101.116" ry="18.3848"/>
<text text-anchor="middle" x="2471" y="-163.4" font-family="Times Roman,serif" font-size="14.00">library&#45;of&#45;congress</text>
</a>
</g>
<!-- lcc&#45;&gt;node18 -->
<g id="edge86" class="edge"><title>lcc&#45;&gt;node18</title>
<path fill="none" stroke="black" d="M2534.81,-226.025C2524.4,-216.394 2510.6,-203.633 2498.5,-192.44"/>
<polygon fill="black" stroke="black" points="2500.57,-189.582 2490.85,-185.36 2495.81,-194.72 2500.57,-189.582"/>
</g>
<!-- cutter -->
<g id="node43" class="node"><title>cutter</title>
<a xlink:href="http://libraries.stackexchange.com/tags/cutter" xlink:title="cutter">
<ellipse fill="none" stroke="gray" cx="2631" cy="-167" rx="41.2167" ry="18.3848"/>
<text text-anchor="middle" x="2631" y="-163.4" font-family="Times Roman,serif" font-size="14.00">cutter</text>
</a>
</g>
<!-- lcc&#45;&gt;cutter -->
<g id="edge84" class="edge"><title>lcc&#45;&gt;cutter</title>
<path fill="none" stroke="black" d="M2567.19,-226.025C2578.15,-215.883 2592.87,-202.269 2605.41,-190.671"/>
<polygon fill="black" stroke="black" points="2607.92,-193.12 2612.88,-183.76 2603.16,-187.981 2607.92,-193.12"/>
</g>
<!-- collection -->
<g id="node19" class="node"><title>collection</title>
<a xlink:href="http://libraries.stackexchange.com/tags/collection" xlink:title="collection">
<ellipse fill="none" stroke="gray" cx="1248" cy="-241" rx="56.7776" ry="18.3848"/>
<text text-anchor="middle" x="1248" y="-237.4" font-family="Times Roman,serif" font-size="14.00">collection</text>
</a>
</g>
<!-- collection&#45;&gt;node4 -->
<g id="edge36" class="edge"><title>collection&#45;&gt;node4</title>
<path fill="none" stroke="black" stroke-width="2" d="M1205.69,-228.393C1178.42,-219.123 1142.97,-204.859 1115,-186 1112.98,-184.635 1021.46,-91.0942 976.037,-44.624"/>
<polygon fill="black" stroke="black" points="978.395,-42.0299 968.903,-37.3247 973.389,-46.9227 978.395,-42.0299"/>
</g>
<!-- collection&#45;&gt;node5 -->
<g id="edge38" class="edge"><title>collection&#45;&gt;node5</title>
<path fill="none" stroke="black" stroke-width="2" d="M1203.64,-229.193C1158.57,-217.194 1088.2,-198.464 1036.46,-184.692"/>
<polygon fill="black" stroke="black" points="1037.27,-181.284 1026.7,-182.094 1035.47,-188.049 1037.27,-181.284"/>
</g>
<!-- node8 -->
<g id="node20" class="node"><title>node8</title>
<a xlink:href="http://libraries.stackexchange.com/tags/collection-development" xlink:title="collection&#45;development">
<ellipse fill="none" stroke="gray" cx="1248" cy="-167" rx="123.951" ry="18.3848"/>
<text text-anchor="middle" x="1248" y="-163.4" font-family="Times Roman,serif" font-size="14.00">collection&#45;development</text>
</a>
</g>
<!-- collection&#45;&gt;node8 -->
<g id="edge32" class="edge"><title>collection&#45;&gt;node8</title>
<path fill="none" stroke="black" stroke-width="2" d="M1248,-222.327C1248,-214.264 1248,-204.648 1248,-195.711"/>
<polygon fill="black" stroke="black" points="1251.5,-195.667 1248,-185.667 1244.5,-195.667 1251.5,-195.667"/>
</g>
<!-- node9 -->
<g id="node21" class="node"><title>node9</title>
<a xlink:href="http://libraries.stackexchange.com/tags/collection-management" xlink:title="collection&#45;management">
<ellipse fill="none" stroke="gray" cx="1553" cy="-167" rx="125.158" ry="18.3848"/>
<text text-anchor="middle" x="1553" y="-163.4" font-family="Times Roman,serif" font-size="14.00">collection&#45;management</text>
</a>
</g>
<!-- collection&#45;&gt;node9 -->
<g id="edge34" class="edge"><title>collection&#45;&gt;node9</title>
<path fill="none" stroke="black" stroke-width="2" d="M1293.66,-229.921C1342.36,-218.106 1420.27,-199.203 1478,-185.197"/>
<polygon fill="black" stroke="black" points="1478.91,-188.577 1487.81,-182.817 1477.26,-181.774 1478.91,-188.577"/>
</g>
<!-- purchasing -->
<g id="node22" class="node"><title>purchasing</title>
<a xlink:href="http://libraries.stackexchange.com/tags/purchasing" xlink:title="purchasing">
<ellipse fill="none" stroke="gray" cx="1189" cy="-93" rx="65.0538" ry="18.3848"/>
<text text-anchor="middle" x="1189" y="-89.4" font-family="Times Roman,serif" font-size="14.00">purchasing</text>
</a>
</g>
<!-- node8&#45;&gt;purchasing -->
<g id="edge42" class="edge"><title>node8&#45;&gt;purchasing</title>
<path fill="none" stroke="black" stroke-width="2" d="M1233.11,-148.327C1226.09,-139.518 1217.59,-128.855 1209.93,-119.251"/>
<polygon fill="black" stroke="black" points="1212.45,-116.793 1203.48,-111.156 1206.97,-121.157 1212.45,-116.793"/>
</g>
<!-- weeding -->
<g id="node23" class="node"><title>weeding</title>
<a xlink:href="http://libraries.stackexchange.com/tags/weeding" xlink:title="weeding">
<ellipse fill="none" stroke="gray" cx="1499" cy="-93" rx="53.033" ry="18.3848"/>
<text text-anchor="middle" x="1499" y="-89.4" font-family="Times Roman,serif" font-size="14.00">weeding</text>
</a>
</g>
<!-- node8&#45;&gt;weeding -->
<g id="edge44" class="edge"><title>node8&#45;&gt;weeding</title>
<path fill="none" stroke="black" stroke-width="2" d="M1305.55,-150.483C1343.03,-139.669 1392.96,-125.155 1437,-112 1441,-110.804 1445.15,-109.555 1449.32,-108.294"/>
<polygon fill="black" stroke="black" points="1450.45,-111.606 1459,-105.348 1448.42,-104.909 1450.45,-111.606"/>
</g>
<!-- node10 -->
<g id="node24" class="node"><title>node10</title>
<a xlink:href="http://libraries.stackexchange.com/tags/patron-driven" xlink:title="patron&#45;driven">
<ellipse fill="none" stroke="gray" cx="1350" cy="-93" rx="77.9889" ry="18.3848"/>
<text text-anchor="middle" x="1350" y="-89.4" font-family="Times Roman,serif" font-size="14.00">patron&#45;driven</text>
</a>
</g>
<!-- node8&#45;&gt;node10 -->
<g id="edge40" class="edge"><title>node8&#45;&gt;node10</title>
<path fill="none" stroke="black" stroke-width="2" d="M1273.21,-148.708C1286.53,-139.048 1303.03,-127.079 1317.31,-116.714"/>
<polygon fill="black" stroke="black" points="1319.39,-119.532 1325.43,-110.826 1315.28,-113.866 1319.39,-119.532"/>
</g>
<!-- weeding&#45;&gt;collection -->
<g id="edge104" class="edge"><title>weeding&#45;&gt;collection</title>
<path fill="none" stroke="black" d="M1472.91,-109.197C1456.84,-119.594 1436.1,-133.772 1419,-148 1400.64,-163.274 1400.86,-172.736 1381,-186 1356.03,-202.672 1325.21,-215.81 1299.52,-225.058"/>
<polygon fill="black" stroke="black" points="1298.23,-221.802 1289.95,-228.411 1300.54,-228.408 1298.23,-221.802"/>
</g>
<!-- node11 -->
<g id="node25" class="node"><title>node11</title>
<a xlink:href="http://libraries.stackexchange.com/tags/digital-humanities" xlink:title="digital&#45;humanities">
<ellipse fill="none" stroke="gray" cx="2741" cy="-315" rx="98.9949" ry="18.3848"/>
<text text-anchor="middle" x="2741" y="-311.4" font-family="Times Roman,serif" font-size="14.00">digital&#45;humanities</text>
</a>
</g>
<!-- tei -->
<g id="node26" class="node"><title>tei</title>
<a xlink:href="http://libraries.stackexchange.com/tags/tei" xlink:title="tei">
<ellipse fill="none" stroke="gray" cx="2741" cy="-241" rx="27" ry="18.3848"/>
<text text-anchor="middle" x="2741" y="-237.4" font-family="Times Roman,serif" font-size="14.00">tei</text>
</a>
</g>
<!-- node11&#45;&gt;tei -->
<g id="edge46" class="edge"><title>node11&#45;&gt;tei</title>
<path fill="none" stroke="black" d="M2741,-296.327C2741,-288.264 2741,-278.648 2741,-269.711"/>
<polygon fill="black" stroke="black" points="2744.5,-269.667 2741,-259.667 2737.5,-269.667 2744.5,-269.667"/>
</g>
<!-- node12 -->
<g id="node27" class="node"><title>node12</title>
<a xlink:href="http://libraries.stackexchange.com/tags/document-types" xlink:title="document&#45;types">
<ellipse fill="none" stroke="gray" cx="2262" cy="-167" rx="90.0096" ry="18.3848"/>
<text text-anchor="middle" x="2262" y="-163.4" font-family="Times Roman,serif" font-size="14.00">document&#45;types</text>
</a>
</g>
<!-- email -->
<g id="node28" class="node"><title>email</title>
<a xlink:href="http://libraries.stackexchange.com/tags/email" xlink:title="email">
<ellipse fill="none" stroke="gray" cx="2261" cy="-93" rx="36.977" ry="18.3848"/>
<text text-anchor="middle" x="2261" y="-89.4" font-family="Times Roman,serif" font-size="14.00">email</text>
</a>
</g>
<!-- node12&#45;&gt;email -->
<g id="edge48" class="edge"><title>node12&#45;&gt;email</title>
<path fill="none" stroke="black" stroke-width="2" d="M2261.75,-148.327C2261.64,-140.264 2261.51,-130.648 2261.39,-121.711"/>
<polygon fill="black" stroke="black" points="2264.89,-121.619 2261.25,-111.667 2257.89,-121.714 2264.89,-121.619"/>
</g>
<!-- email&#45;&gt;internet -->
<g id="edge54" class="edge"><title>email&#45;&gt;internet</title>
<path fill="none" stroke="black" d="M2233.71,-80.2233C2227.66,-77.8179 2221.2,-75.5685 2215,-74 2128.02,-51.9904 1867.62,-31.5891 1748.58,-23.124"/>
<polygon fill="black" stroke="black" points="1748.76,-19.6282 1738.54,-22.4145 1748.27,-26.6108 1748.76,-19.6282"/>
</g>
<!-- node13 -->
<g id="node29" class="node"><title>node13</title>
<a xlink:href="http://libraries.stackexchange.com/tags/e-readers" xlink:title="e&#45;readers">
<ellipse fill="none" stroke="gray" cx="2940" cy="-315" rx="57.9828" ry="18.3848"/>
<text text-anchor="middle" x="2940" y="-311.4" font-family="Times Roman,serif" font-size="14.00">e&#45;readers</text>
</a>
</g>
<!-- ebooks -->
<g id="node30" class="node"><title>ebooks</title>
<a xlink:href="http://libraries.stackexchange.com/tags/ebooks" xlink:title="ebooks">
<ellipse fill="none" stroke="gray" cx="2886" cy="-241" rx="45.9619" ry="18.3848"/>
<text text-anchor="middle" x="2886" y="-237.4" font-family="Times Roman,serif" font-size="14.00">ebooks</text>
</a>
</g>
<!-- node13&#45;&gt;ebooks -->
<g id="edge52" class="edge"><title>node13&#45;&gt;ebooks</title>
<path fill="none" stroke="black" d="M2926.65,-296.708C2920.13,-287.77 2912.17,-276.856 2905.02,-267.064"/>
<polygon fill="black" stroke="black" points="2907.73,-264.841 2899.01,-258.826 2902.08,-268.967 2907.73,-264.841"/>
</g>
<!-- node14 -->
<g id="node31" class="node"><title>node14</title>
<a xlink:href="http://libraries.stackexchange.com/tags/e-resources" xlink:title="e&#45;resources">
<ellipse fill="none" stroke="gray" cx="3018" cy="-241" rx="67.8823" ry="18.3848"/>
<text text-anchor="middle" x="3018" y="-237.4" font-family="Times Roman,serif" font-size="14.00">e&#45;resources</text>
</a>
</g>
<!-- node13&#45;&gt;node14 -->
<g id="edge50" class="edge"><title>node13&#45;&gt;node14</title>
<path fill="none" stroke="black" d="M2958.48,-297.463C2968.44,-288.018 2980.89,-276.206 2991.83,-265.831"/>
<polygon fill="black" stroke="black" points="2994.26,-268.347 2999.11,-258.925 2989.44,-263.269 2994.26,-268.347"/>
</g>
<!-- ils -->
<g id="node33" class="node"><title>ils</title>
<a xlink:href="http://libraries.stackexchange.com/tags/ils" xlink:title="ils">
<ellipse fill="none" stroke="gray" cx="1941" cy="-241" rx="27" ry="18.3848"/>
<text text-anchor="middle" x="1941" y="-237.4" font-family="Times Roman,serif" font-size="14.00">ils</text>
</a>
</g>
<!-- ils&#45;&gt;cataloging -->
<g id="edge56" class="edge"><title>ils&#45;&gt;cataloging</title>
<path fill="none" stroke="black" stroke-width="2" d="M1960.86,-228.11C1977.23,-217.481 2000.85,-202.15 2020.33,-189.503"/>
<polygon fill="black" stroke="black" points="2022.47,-192.288 2028.95,-183.908 2018.66,-186.417 2022.47,-192.288"/>
</g>
<!-- ils&#45;&gt;circulation -->
<g id="edge58" class="edge"><title>ils&#45;&gt;circulation</title>
<path fill="none" stroke="black" stroke-width="2" d="M1967.48,-236.513C2013.1,-228.247 2103.68,-209.309 2125,-186 2140.75,-168.788 2144.89,-142.175 2145.44,-121.82"/>
<polygon fill="black" stroke="black" points="2148.94,-121.543 2145.44,-111.543 2141.94,-121.543 2148.94,-121.543"/>
</g>
<!-- ils&#45;&gt;node9 -->
<g id="edge60" class="edge"><title>ils&#45;&gt;node9</title>
<path fill="none" stroke="black" stroke-width="2" d="M1914.94,-236.03C1859.56,-225.467 1728.01,-200.378 1639.71,-183.538"/>
<polygon fill="black" stroke="black" points="1640.18,-180.065 1629.7,-181.629 1638.87,-186.941 1640.18,-180.065"/>
</g>
<!-- opac -->
<g id="node34" class="node"><title>opac</title>
<a xlink:href="http://libraries.stackexchange.com/tags/opac" xlink:title="opac">
<ellipse fill="none" stroke="gray" cx="1854" cy="-167" rx="33.9411" ry="18.3848"/>
<text text-anchor="middle" x="1854" y="-163.4" font-family="Times Roman,serif" font-size="14.00">opac</text>
</a>
</g>
<!-- ils&#45;&gt;opac -->
<g id="edge64" class="edge"><title>ils&#45;&gt;opac</title>
<path fill="none" stroke="black" stroke-width="2" d="M1923.81,-226.38C1911.39,-215.817 1894.39,-201.356 1880.28,-189.349"/>
<polygon fill="black" stroke="black" points="1882.24,-186.425 1872.35,-182.612 1877.7,-191.757 1882.24,-186.425"/>
</g>
<!-- koha -->
<g id="node35" class="node"><title>koha</title>
<a xlink:href="http://libraries.stackexchange.com/tags/koha" xlink:title="koha">
<ellipse fill="none" stroke="gray" cx="1941" cy="-167" rx="34.8574" ry="18.3848"/>
<text text-anchor="middle" x="1941" y="-163.4" font-family="Times Roman,serif" font-size="14.00">koha</text>
</a>
</g>
<!-- ils&#45;&gt;koha -->
<g id="edge62" class="edge"><title>ils&#45;&gt;koha</title>
<path fill="none" stroke="black" stroke-width="2" d="M1941,-222.327C1941,-214.264 1941,-204.648 1941,-195.711"/>
<polygon fill="black" stroke="black" points="1944.5,-195.667 1941,-185.667 1937.5,-195.667 1944.5,-195.667"/>
</g>
<!-- institutions -->
<g id="node36" class="node"><title>institutions</title>
<a xlink:href="http://libraries.stackexchange.com/tags/institutions" xlink:title="institutions">
<ellipse fill="none" stroke="gray" cx="541" cy="-315" rx="67.1751" ry="18.3848"/>
<text text-anchor="middle" x="541" y="-311.4" font-family="Times Roman,serif" font-size="14.00">institutions</text>
</a>
</g>
<!-- institutions&#45;&gt;node1 -->
<g id="edge66" class="edge"><title>institutions&#45;&gt;node1</title>
<path fill="none" stroke="black" stroke-width="2" d="M541,-296.327C541,-288.264 541,-278.648 541,-269.711"/>
<polygon fill="black" stroke="black" points="544.5,-269.667 541,-259.667 537.5,-269.667 544.5,-269.667"/>
</g>
<!-- institutions&#45;&gt;node2 -->
<g id="edge78" class="edge"><title>institutions&#45;&gt;node2</title>
<path fill="none" stroke="black" stroke-width="2" d="M495.571,-301.397C473.831,-292.756 449.095,-279.455 433,-260 418.011,-241.882 411.341,-215.802 408.374,-195.867"/>
<polygon fill="black" stroke="black" points="411.828,-195.282 407.106,-185.797 404.883,-196.156 411.828,-195.282"/>
</g>
<!-- institutions&#45;&gt;node3 -->
<g id="edge80" class="edge"><title>institutions&#45;&gt;node3</title>
<path fill="none" stroke="black" stroke-width="2" d="M590.565,-302.528C612.47,-294.281 636.135,-280.989 649,-260 657.826,-245.601 655.736,-237.488 649,-222 643.8,-210.043 634.578,-199.509 624.947,-190.943"/>
<polygon fill="black" stroke="black" points="627.132,-188.208 617.205,-184.506 622.657,-193.591 627.132,-188.208"/>
</g>
<!-- institutions&#45;&gt;archives -->
<g id="edge68" class="edge"><title>institutions&#45;&gt;archives</title>
<path fill="none" stroke="black" stroke-width="2" d="M582.392,-300.203C616.795,-287.904 665.725,-270.412 701.478,-257.631"/>
<polygon fill="black" stroke="black" points="702.951,-260.821 711.189,-254.159 700.595,-254.23 702.951,-260.821"/>
</g>
<!-- node15 -->
<g id="node37" class="node"><title>node15</title>
<a xlink:href="http://libraries.stackexchange.com/tags/home-libraries" xlink:title="home&#45;libraries">
<ellipse fill="none" stroke="gray" cx="899" cy="-241" rx="80.8184" ry="18.3848"/>
<text text-anchor="middle" x="899" y="-237.4" font-family="Times Roman,serif" font-size="14.00">home&#45;libraries</text>
</a>
</g>
<!-- institutions&#45;&gt;node15 -->
<g id="edge70" class="edge"><title>institutions&#45;&gt;node15</title>
<path fill="none" stroke="black" stroke-width="2" d="M595.172,-303.976C649.319,-292.935 734.948,-275.415 809,-260 815.618,-258.622 822.507,-257.181 829.398,-255.734"/>
<polygon fill="black" stroke="black" points="830.398,-259.101 839.464,-253.618 828.958,-252.251 830.398,-259.101"/>
</g>
<!-- node16 -->
<g id="node38" class="node"><title>node16</title>
<a xlink:href="http://libraries.stackexchange.com/tags/small-libraries" xlink:title="small&#45;libraries">
<ellipse fill="none" stroke="gray" cx="1077" cy="-241" rx="79.196" ry="18.3848"/>
<text text-anchor="middle" x="1077" y="-237.4" font-family="Times Roman,serif" font-size="14.00">small&#45;libraries</text>
</a>
</g>
<!-- institutions&#45;&gt;node16 -->
<g id="edge82" class="edge"><title>institutions&#45;&gt;node16</title>
<path fill="none" stroke="black" stroke-width="2" d="M604.695,-309.013C691.8,-300.408 852.818,-283.012 989,-260 995.993,-258.818 1003.27,-257.459 1010.51,-256.021"/>
<polygon fill="black" stroke="black" points="1011.24,-259.446 1020.34,-254.022 1009.84,-252.586 1011.24,-259.446"/>
</g>
<!-- museums -->
<g id="node39" class="node"><title>museums</title>
<a xlink:href="http://libraries.stackexchange.com/tags/museums" xlink:title="museums">
<ellipse fill="none" stroke="gray" cx="58" cy="-241" rx="57.9828" ry="18.3848"/>
<text text-anchor="middle" x="58" y="-237.4" font-family="Times Roman,serif" font-size="14.00">museums</text>
</a>
</g>
<!-- institutions&#45;&gt;museums -->
<g id="edge76" class="edge"><title>institutions&#45;&gt;museums</title>
<path fill="none" stroke="black" stroke-width="2" d="M476.734,-309.418C394.586,-301.618 248.243,-285.482 125,-260 120.022,-258.971 114.871,-257.767 109.739,-256.474"/>
<polygon fill="black" stroke="black" points="110.505,-253.056 99.944,-253.899 108.726,-259.826 110.505,-253.056"/>
</g>
<!-- loc -->
<g id="node40" class="node"><title>loc</title>
<a xlink:href="http://libraries.stackexchange.com/tags/loc" xlink:title="loc">
<ellipse fill="none" stroke="gray" cx="161" cy="-241" rx="27" ry="18.3848"/>
<text text-anchor="middle" x="161" y="-237.4" font-family="Times Roman,serif" font-size="14.00">loc</text>
</a>
</g>
<!-- institutions&#45;&gt;loc -->
<g id="edge74" class="edge"><title>institutions&#45;&gt;loc</title>
<path fill="none" stroke="black" stroke-width="2" d="M475.46,-310.907C405.104,-305.055 290.801,-291.302 197,-260 194.876,-259.291 192.726,-258.467 190.589,-257.566"/>
<polygon fill="black" stroke="black" points="191.965,-254.345 181.427,-253.253 188.983,-260.679 191.965,-254.345"/>
</g>
<!-- node17 -->
<g id="node41" class="node"><title>node17</title>
<a xlink:href="http://libraries.stackexchange.com/tags/internet-archive" xlink:title="internet&#45;archive">
<ellipse fill="none" stroke="gray" cx="296" cy="-241" rx="90.0096" ry="18.3848"/>
<text text-anchor="middle" x="296" y="-237.4" font-family="Times Roman,serif" font-size="14.00">internet&#45;archive</text>
</a>
</g>
<!-- institutions&#45;&gt;node17 -->
<g id="edge72" class="edge"><title>institutions&#45;&gt;node17</title>
<path fill="none" stroke="black" stroke-width="2" d="M495.778,-301.341C456.655,-289.524 399.757,-272.339 356.681,-259.328"/>
<polygon fill="black" stroke="black" points="357.466,-255.909 346.881,-256.368 355.442,-262.61 357.466,-255.909"/>
</g>
<!-- profession -->
<g id="node44" class="node"><title>profession</title>
<a xlink:href="http://libraries.stackexchange.com/tags/profession" xlink:title="profession">
<ellipse fill="none" stroke="gray" cx="3336" cy="-315" rx="60.8112" ry="18.3848"/>
<text text-anchor="middle" x="3336" y="-311.4" font-family="Times Roman,serif" font-size="14.00">profession</text>
</a>
</g>
<!-- node19 -->
<g id="node45" class="node"><title>node19</title>
<a xlink:href="http://libraries.stackexchange.com/tags/professional-development" xlink:title="professional&#45;development">
<ellipse fill="none" stroke="gray" cx="3240" cy="-241" rx="135.972" ry="18.3848"/>
<text text-anchor="middle" x="3240" y="-237.4" font-family="Times Roman,serif" font-size="14.00">professional&#45;development</text>
</a>
</g>
<!-- profession&#45;&gt;node19 -->
<g id="edge90" class="edge"><title>profession&#45;&gt;node19</title>
<path fill="none" stroke="black" stroke-width="2" d="M3313.25,-297.463C3300.94,-287.977 3285.54,-276.106 3272.04,-265.7"/>
<polygon fill="black" stroke="black" points="3273.98,-262.777 3263.93,-259.444 3269.71,-268.321 3273.98,-262.777"/>
</g>
<!-- hiring -->
<g id="node46" class="node"><title>hiring</title>
<a xlink:href="http://libraries.stackexchange.com/tags/hiring" xlink:title="hiring">
<ellipse fill="none" stroke="gray" cx="3433" cy="-241" rx="39.0967" ry="18.3848"/>
<text text-anchor="middle" x="3433" y="-237.4" font-family="Times Roman,serif" font-size="14.00">hiring</text>
</a>
</g>
<!-- profession&#45;&gt;hiring -->
<g id="edge88" class="edge"><title>profession&#45;&gt;hiring</title>
<path fill="none" stroke="black" stroke-width="2" d="M3358.99,-297.463C3372.48,-287.173 3389.64,-274.076 3404.05,-263.087"/>
<polygon fill="black" stroke="black" points="3406.33,-265.746 3412.16,-256.898 3402.09,-260.18 3406.33,-265.746"/>
</g>
<!-- software -->
<g id="node47" class="node"><title>software</title>
<a xlink:href="http://libraries.stackexchange.com/tags/software" xlink:title="software">
<ellipse fill="none" stroke="gray" cx="1941" cy="-315" rx="53.9477" ry="18.3848"/>
<text text-anchor="middle" x="1941" y="-311.4" font-family="Times Roman,serif" font-size="14.00">software</text>
</a>
</g>
<!-- software&#45;&gt;ils -->
<g id="edge92" class="edge"><title>software&#45;&gt;ils</title>
<path fill="none" stroke="black" stroke-width="2" d="M1941,-296.327C1941,-288.264 1941,-278.648 1941,-269.711"/>
<polygon fill="black" stroke="black" points="1944.5,-269.667 1941,-259.667 1937.5,-269.667 1944.5,-269.667"/>
</g>
</g>
</svg>
