<?xml version="1.0" encoding="UTF-8" standalone="no"?>
<!DOCTYPE svg PUBLIC "-//W3C//DTD SVG 1.0//EN"
 "http://www.w3.org/TR/2001/REC-SVG-20010904/DTD/svg10.dtd" [
 <!ATTLIST svg xmlns:xlink CDATA #FIXED "http://www.w3.org/1999/xlink">
]>
<!-- Generated by Graphviz version 2.20.2 (Tue Mar &#160;2 21:46:26 UTC 2010)
     For user: (voj) Jakob,,, -->
<!-- Title: test Pages: 1 -->
<svg width="4051pt" height="332pt"
 viewBox="0.00 0.00 4051.00 332.00" xmlns="http://www.w3.org/2000/svg" xmlns:xlink="http://www.w3.org/1999/xlink">
<g id="graph0" class="graph" transform="scale(1 1) rotate(0) translate(4 328)">
<title>test</title>
<polygon style="fill:white;stroke:white;" points="-4,4 -4,-328 4047,-328 4047,4 -4,4"/>
<!-- node1 -->
<g id="node1" class="node"><title>node1</title>
<ellipse style="fill:none;stroke:black;" cx="344" cy="-234" rx="121.104" ry="18"/>
<text text-anchor="middle" x="344" y="-229.9" style="font-family:Times New Roman;font-size:14.00;">collection&#45;development</text>
</g>
<!-- purchasing -->
<g id="node2" class="node"><title>purchasing</title>
<ellipse style="fill:none;stroke:gray;" cx="600" cy="-162" rx="63.2343" ry="18"/>
<text text-anchor="middle" x="600" y="-157.9" style="font-family:Times New Roman;font-size:14.00;">purchasing</text>
</g>
<!-- node1&#45;&gt;purchasing -->
<g id="edge44" class="edge"><title>node1&#45;&gt;purchasing</title>
<path style="fill:none;stroke:black;stroke-width:2;" d="M401,-218C444,-206 503,-190 545,-178"/>
<polygon style="fill:black;stroke:black;" points="546.427,-181.226 555,-175 544.416,-174.521 546.427,-181.226"/>
</g>
<!-- weeding -->
<g id="node3" class="node"><title>weeding</title>
<ellipse style="fill:none;stroke:black;" cx="467" cy="-162" rx="52.1162" ry="18"/>
<text text-anchor="middle" x="467" y="-157.9" style="font-family:Times New Roman;font-size:14.00;">weeding</text>
</g>
<!-- node1&#45;&gt;weeding -->
<g id="edge46" class="edge"><title>node1&#45;&gt;weeding</title>
<path style="fill:none;stroke:black;stroke-width:2;" d="M368,-216C385,-206 408,-192 427,-182"/>
<polygon style="fill:black;stroke:black;" points="428.958,-184.916 436,-177 425.559,-178.797 428.958,-184.916"/>
</g>
<!-- node2 -->
<g id="node4" class="node"><title>node2</title>
<ellipse style="fill:none;stroke:gray;" cx="320" cy="-162" rx="77.1319" ry="18"/>
<text text-anchor="middle" x="320" y="-157.9" style="font-family:Times New Roman;font-size:14.00;">patron&#45;driven</text>
</g>
<!-- node1&#45;&gt;node2 -->
<g id="edge42" class="edge"><title>node1&#45;&gt;node2</title>
<path style="fill:none;stroke:black;stroke-width:2;" d="M338,-216C335,-208 332,-198 329,-190"/>
<polygon style="fill:black;stroke:black;" points="332.226,-188.573 326,-180 325.521,-190.584 332.226,-188.573"/>
</g>
<!-- collection -->
<g id="node5" class="node"><title>collection</title>
<ellipse style="fill:none;stroke:black;" cx="283" cy="-90" rx="55.7874" ry="18"/>
<text text-anchor="middle" x="283" y="-85.9" style="font-family:Times New Roman;font-size:14.00;">collection</text>
</g>
<!-- node1&#45;&gt;collection -->
<g id="edge40" class="edge"><title>node1&#45;&gt;collection</title>
<path style="fill:none;stroke:black;" d="M277,-219C257,-211 237,-198 225,-180 211,-158 230,-131 249,-113"/>
<polygon style="fill:black;stroke:black;" points="251.779,-115.219 257,-106 247.169,-109.951 251.779,-115.219"/>
</g>
<!-- weeding&#45;&gt;node1 -->
<g id="edge92" class="edge"><title>weeding&#45;&gt;node1</title>
<path style="fill:none;stroke:black;" d="M444,-178C428,-188 407,-201 388,-212"/>
<polygon style="fill:black;stroke:black;" points="386.042,-209.084 379,-217 389.441,-215.203 386.042,-209.084"/>
</g>
<!-- weeding&#45;&gt;collection -->
<g id="edge90" class="edge"><title>weeding&#45;&gt;collection</title>
<path style="fill:none;stroke:black;" d="M432,-148C403,-137 360,-121 328,-108"/>
<polygon style="fill:black;stroke:black;" points="329.56,-104.863 319,-104 326.717,-111.26 329.56,-104.863"/>
</g>
<!-- collection&#45;&gt;node1 -->
<g id="edge32" class="edge"><title>collection&#45;&gt;node1</title>
<path style="fill:none;stroke:black;stroke-width:2;" d="M269,-108C251,-126 228,-155 243,-180 252,-195 267,-206 282,-214"/>
<polygon style="fill:black;stroke:black;" points="280.44,-217.137 291,-218 283.283,-210.74 280.44,-217.137"/>
</g>
<!-- node3 -->
<g id="node6" class="node"><title>node3</title>
<ellipse style="fill:none;stroke:gray;" cx="360" cy="-18" rx="95.8938" ry="18"/>
<text text-anchor="middle" x="360" y="-13.9" style="font-family:Times New Roman;font-size:14.00;">special&#45;collections</text>
</g>
<!-- collection&#45;&gt;node3 -->
<g id="edge38" class="edge"><title>collection&#45;&gt;node3</title>
<path style="fill:none;stroke:black;stroke-width:2;" d="M301,-73C311,-64 323,-53 334,-43"/>
<polygon style="fill:black;stroke:black;" points="336.404,-45.546 341,-36 331.454,-40.5962 336.404,-45.546"/>
</g>
<!-- node4 -->
<g id="node7" class="node"><title>node4</title>
<ellipse style="fill:none;stroke:gray;" cx="568" cy="-18" rx="93.8091" ry="18"/>
<text text-anchor="middle" x="568" y="-13.9" style="font-family:Times New Roman;font-size:14.00;">digital&#45;collections</text>
</g>
<!-- collection&#45;&gt;node4 -->
<g id="edge36" class="edge"><title>collection&#45;&gt;node4</title>
<path style="fill:none;stroke:black;stroke-width:2;" d="M327,-79C374,-68 448,-48 501,-35"/>
<polygon style="fill:black;stroke:black;" points="502.427,-38.2259 511,-32 500.416,-31.5212 502.427,-38.2259"/>
</g>
<!-- node5 -->
<g id="node8" class="node"><title>node5</title>
<ellipse style="fill:none;stroke:gray;" cx="123" cy="-18" rx="122.994" ry="18"/>
<text text-anchor="middle" x="123" y="-13.9" style="font-family:Times New Roman;font-size:14.00;">collection&#45;management</text>
</g>
<!-- collection&#45;&gt;node5 -->
<g id="edge34" class="edge"><title>collection&#45;&gt;node5</title>
<path style="fill:none;stroke:black;stroke-width:2;" d="M250,-75C227,-64 196,-50 170,-39"/>
<polygon style="fill:black;stroke:black;" points="171.56,-35.8631 161,-35 168.717,-42.2598 171.56,-35.8631"/>
</g>
<!-- archiving -->
<g id="node9" class="node"><title>archiving</title>
<ellipse style="fill:none;stroke:black;" cx="862" cy="-162" rx="54.8957" ry="18"/>
<text text-anchor="middle" x="862" y="-157.9" style="font-family:Times New Roman;font-size:14.00;">archiving</text>
</g>
<!-- archives -->
<g id="node10" class="node"><title>archives</title>
<ellipse style="fill:none;stroke:black;" cx="849" cy="-234" rx="50.2242" ry="18"/>
<text text-anchor="middle" x="849" y="-229.9" style="font-family:Times New Roman;font-size:14.00;">archives</text>
</g>
<!-- archiving&#45;&gt;archives -->
<g id="edge18" class="edge"><title>archiving&#45;&gt;archives</title>
<path style="fill:none;stroke:black;" d="M865,-180C864,-188 863,-197 860,-206"/>
<polygon style="fill:black;stroke:black;" points="856.529,-205.508 858,-216 863.393,-206.881 856.529,-205.508"/>
</g>
<!-- node6 -->
<g id="node11" class="node"><title>node6</title>
<ellipse style="fill:none;stroke:gray;" cx="767" cy="-18" rx="87.0549" ry="18"/>
<text text-anchor="middle" x="767" y="-13.9" style="font-family:Times New Roman;font-size:14.00;">digital&#45;archiving</text>
</g>
<!-- archiving&#45;&gt;node6 -->
<g id="edge20" class="edge"><title>archiving&#45;&gt;node6</title>
<path style="fill:none;stroke:black;stroke-width:2;" d="M831,-147C815,-138 797,-124 786,-108 774,-90 770,-65 768,-46"/>
<polygon style="fill:black;stroke:black;" points="771.478,-45.6021 767,-36 764.512,-46.2987 771.478,-45.6021"/>
</g>
<!-- node7 -->
<g id="node12" class="node"><title>node7</title>
<ellipse style="fill:none;stroke:black;" cx="874" cy="-90" rx="79.2166" ry="18"/>
<text text-anchor="middle" x="874" y="-85.9" style="font-family:Times New Roman;font-size:14.00;">web&#45;archiving</text>
</g>
<!-- archiving&#45;&gt;node7 -->
<g id="edge24" class="edge"><title>archiving&#45;&gt;node7</title>
<path style="fill:none;stroke:black;stroke-width:2;" d="M859,-144C860,-136 861,-127 863,-118"/>
<polygon style="fill:black;stroke:black;" points="866.471,-118.492 865,-108 859.607,-117.119 866.471,-118.492"/>
</g>
<!-- preservation -->
<g id="node13" class="node"><title>preservation</title>
<ellipse style="fill:none;stroke:black;" cx="1061" cy="-18" rx="71.0724" ry="18"/>
<text text-anchor="middle" x="1061" y="-13.9" style="font-family:Times New Roman;font-size:14.00;">preservation</text>
</g>
<!-- archiving&#45;&gt;preservation -->
<g id="edge22" class="edge"><title>archiving&#45;&gt;preservation</title>
<path style="fill:none;stroke:black;" d="M894,-147C914,-137 941,-123 962,-108 989,-89 1018,-62 1037,-43"/>
<polygon style="fill:black;stroke:black;" points="1039.4,-45.546 1044,-36 1034.45,-40.5962 1039.4,-45.546"/>
</g>
<!-- archives&#45;&gt;node3 -->
<g id="edge16" class="edge"><title>archives&#45;&gt;node3</title>
<path style="fill:none;stroke:black;" d="M822,-219C787,-200 726,-168 672,-144 583,-103 476,-61 413,-38"/>
<polygon style="fill:black;stroke:black;" points="413.585,-34.4643 403,-34 410.985,-40.9636 413.585,-34.4643"/>
</g>
<!-- archives&#45;&gt;node4 -->
<g id="edge14" class="edge"><title>archives&#45;&gt;node4</title>
<path style="fill:none;stroke:black;" d="M833,-216C823,-206 810,-192 798,-180 756,-132 757,-108 705,-72 683,-56 656,-44 633,-36"/>
<polygon style="fill:black;stroke:black;" points="633.584,-32.5212 623,-33 631.573,-39.2259 633.584,-32.5212"/>
</g>
<!-- archives&#45;&gt;archiving -->
<g id="edge12" class="edge"><title>archives&#45;&gt;archiving</title>
<path style="fill:none;stroke:black;" d="M846,-216C847,-208 848,-199 851,-190"/>
<polygon style="fill:black;stroke:black;" points="854.471,-190.492 853,-180 847.607,-189.119 854.471,-190.492"/>
</g>
<!-- node7&#45;&gt;node4 -->
<g id="edge84" class="edge"><title>node7&#45;&gt;node4</title>
<path style="fill:none;stroke:black;" d="M819,-77C768,-65 693,-47 638,-34"/>
<polygon style="fill:black;stroke:black;" points="638.492,-30.5292 628,-32 637.119,-37.3933 638.492,-30.5292"/>
</g>
<!-- node7&#45;&gt;archiving -->
<g id="edge80" class="edge"><title>node7&#45;&gt;archiving</title>
<path style="fill:none;stroke:black;" d="M877,-108C876,-116 875,-125 873,-134"/>
<polygon style="fill:black;stroke:black;" points="869.529,-133.508 871,-144 876.393,-134.881 869.529,-133.508"/>
</g>
<!-- node7&#45;&gt;node6 -->
<g id="edge82" class="edge"><title>node7&#45;&gt;node6</title>
<path style="fill:none;stroke:black;" d="M849,-73C835,-64 817,-52 801,-41"/>
<polygon style="fill:black;stroke:black;" points="803.1,-38.2 793,-35 798.9,-43.8 803.1,-38.2"/>
</g>
<!-- node7&#45;&gt;preservation -->
<g id="edge88" class="edge"><title>node7&#45;&gt;preservation</title>
<path style="fill:none;stroke:black;" d="M915,-74C944,-63 982,-48 1012,-37"/>
<polygon style="fill:black;stroke:black;" points="1014.02,-39.9636 1022,-33 1011.42,-33.4643 1014.02,-39.9636"/>
</g>
<!-- internet -->
<g id="node22" class="node"><title>internet</title>
<ellipse style="fill:none;stroke:black;" cx="922" cy="-18" rx="50.0315" ry="18"/>
<text text-anchor="middle" x="922" y="-13.9" style="font-family:Times New Roman;font-size:14.00;">internet</text>
</g>
<!-- node7&#45;&gt;internet -->
<g id="edge86" class="edge"><title>node7&#45;&gt;internet</title>
<path style="fill:none;stroke:black;" d="M886,-72C891,-64 898,-54 904,-44"/>
<polygon style="fill:black;stroke:black;" points="906.8,-46.1 910,-36 901.2,-41.9 906.8,-46.1"/>
</g>
<!-- lcc -->
<g id="node14" class="node"><title>lcc</title>
<ellipse style="fill:none;stroke:black;" cx="1494" cy="-306" rx="27" ry="18"/>
<text text-anchor="middle" x="1494" y="-301.9" style="font-family:Times New Roman;font-size:14.00;">lcc</text>
</g>
<!-- classification -->
<g id="node15" class="node"><title>classification</title>
<ellipse style="fill:none;stroke:black;" cx="1234" cy="-234" rx="70.878" ry="18"/>
<text text-anchor="middle" x="1234" y="-229.9" style="font-family:Times New Roman;font-size:14.00;">classification</text>
</g>
<!-- lcc&#45;&gt;classification -->
<g id="edge68" class="edge"><title>lcc&#45;&gt;classification</title>
<path style="fill:none;stroke:black;" d="M1469,-299C1427,-288 1347,-266 1292,-250"/>
<polygon style="fill:black;stroke:black;" points="1292.58,-246.521 1282,-247 1290.57,-253.226 1292.58,-246.521"/>
</g>
<!-- node8 -->
<g id="node16" class="node"><title>node8</title>
<ellipse style="fill:none;stroke:black;" cx="1422" cy="-234" rx="98.8688" ry="18"/>
<text text-anchor="middle" x="1422" y="-229.9" style="font-family:Times New Roman;font-size:14.00;">library&#45;of&#45;congress</text>
</g>
<!-- lcc&#45;&gt;node8 -->
<g id="edge74" class="edge"><title>lcc&#45;&gt;node8</title>
<path style="fill:none;stroke:black;" d="M1479,-291C1470,-282 1458,-270 1447,-259"/>
<polygon style="fill:black;stroke:black;" points="1449.55,-256.596 1440,-252 1444.6,-261.546 1449.55,-256.596"/>
</g>
<!-- ddc -->
<g id="node17" class="node"><title>ddc</title>
<ellipse style="fill:none;stroke:black;" cx="1566" cy="-234" rx="27.1004" ry="18"/>
<text text-anchor="middle" x="1566" y="-229.9" style="font-family:Times New Roman;font-size:14.00;">ddc</text>
</g>
<!-- lcc&#45;&gt;ddc -->
<g id="edge72" class="edge"><title>lcc&#45;&gt;ddc</title>
<path style="fill:none;stroke:black;" d="M1509,-291C1519,-281 1532,-268 1544,-256"/>
<polygon style="fill:black;stroke:black;" points="1546.4,-258.546 1551,-249 1541.45,-253.596 1546.4,-258.546"/>
</g>
<!-- cutter -->
<g id="node18" class="node"><title>cutter</title>
<ellipse style="fill:none;stroke:black;" cx="1651" cy="-234" rx="39.8056" ry="18"/>
<text text-anchor="middle" x="1651" y="-229.9" style="font-family:Times New Roman;font-size:14.00;">cutter</text>
</g>
<!-- lcc&#45;&gt;cutter -->
<g id="edge70" class="edge"><title>lcc&#45;&gt;cutter</title>
<path style="fill:none;stroke:black;" d="M1516,-296C1541,-284 1584,-265 1614,-251"/>
<polygon style="fill:black;stroke:black;" points="1615.28,-254.26 1623,-247 1612.44,-247.863 1615.28,-254.26"/>
</g>
<!-- profession -->
<g id="node19" class="node"><title>profession</title>
<ellipse style="fill:none;stroke:black;" cx="1937" cy="-306" rx="59.7599" ry="18"/>
<text text-anchor="middle" x="1937" y="-301.9" style="font-family:Times New Roman;font-size:14.00;">profession</text>
</g>
<!-- node9 -->
<g id="node20" class="node"><title>node9</title>
<ellipse style="fill:none;stroke:gray;" cx="1842" cy="-234" rx="132.918" ry="18"/>
<text text-anchor="middle" x="1842" y="-229.9" style="font-family:Times New Roman;font-size:14.00;">professional&#45;development</text>
</g>
<!-- profession&#45;&gt;node9 -->
<g id="edge78" class="edge"><title>profession&#45;&gt;node9</title>
<path style="fill:none;stroke:black;stroke-width:2;" d="M1914,-289C1902,-280 1886,-268 1873,-258"/>
<polygon style="fill:black;stroke:black;" points="1875.1,-255.2 1865,-252 1870.9,-260.8 1875.1,-255.2"/>
</g>
<!-- hiring -->
<g id="node21" class="node"><title>hiring</title>
<ellipse style="fill:none;stroke:gray;" cx="2032" cy="-234" rx="38.9134" ry="18"/>
<text text-anchor="middle" x="2032" y="-229.9" style="font-family:Times New Roman;font-size:14.00;">hiring</text>
</g>
<!-- profession&#45;&gt;hiring -->
<g id="edge76" class="edge"><title>profession&#45;&gt;hiring</title>
<path style="fill:none;stroke:black;stroke-width:2;" d="M1960,-289C1973,-279 1990,-266 2004,-256"/>
<polygon style="fill:black;stroke:black;" points="2006.1,-258.8 2012,-250 2001.9,-253.2 2006.1,-258.8"/>
</g>
<!-- cataloging -->
<g id="node23" class="node"><title>cataloging</title>
<ellipse style="fill:none;stroke:black;" cx="2321" cy="-306" rx="59.9551" ry="18"/>
<text text-anchor="middle" x="2321" y="-301.9" style="font-family:Times New Roman;font-size:14.00;">cataloging</text>
</g>
<!-- bibliographies -->
<g id="node24" class="node"><title>bibliographies</title>
<ellipse style="fill:none;stroke:black;" cx="2166" cy="-234" rx="77.1319" ry="18"/>
<text text-anchor="middle" x="2166" y="-229.9" style="font-family:Times New Roman;font-size:14.00;">bibliographies</text>
</g>
<!-- cataloging&#45;&gt;bibliographies -->
<g id="edge26" class="edge"><title>cataloging&#45;&gt;bibliographies</title>
<path style="fill:none;stroke:black;" d="M2288,-291C2266,-280 2235,-266 2210,-254"/>
<polygon style="fill:black;stroke:black;" points="2211.56,-250.863 2201,-250 2208.72,-257.26 2211.56,-250.863"/>
</g>
<!-- circulation -->
<g id="node25" class="node"><title>circulation</title>
<ellipse style="fill:none;stroke:black;" cx="2321" cy="-234" rx="59.9551" ry="18"/>
<text text-anchor="middle" x="2321" y="-229.9" style="font-family:Times New Roman;font-size:14.00;">circulation</text>
</g>
<!-- cataloging&#45;&gt;circulation -->
<g id="edge28" class="edge"><title>cataloging&#45;&gt;circulation</title>
<path style="fill:none;stroke:black;" d="M2321,-288C2321,-280 2321,-271 2321,-262"/>
<polygon style="fill:black;stroke:black;" points="2324.5,-262 2321,-252 2317.5,-262 2324.5,-262"/>
</g>
<!-- metadata -->
<g id="node26" class="node"><title>metadata</title>
<ellipse style="fill:none;stroke:black;" cx="2456" cy="-234" rx="56.9803" ry="18"/>
<text text-anchor="middle" x="2456" y="-229.9" style="font-family:Times New Roman;font-size:14.00;">metadata</text>
</g>
<!-- cataloging&#45;&gt;metadata -->
<g id="edge30" class="edge"><title>cataloging&#45;&gt;metadata</title>
<path style="fill:none;stroke:black;" d="M2351,-290C2370,-280 2396,-265 2418,-254"/>
<polygon style="fill:black;stroke:black;" points="2419.96,-256.916 2427,-249 2416.56,-250.797 2419.96,-256.916"/>
</g>
<!-- institutions -->
<g id="node27" class="node"><title>institutions</title>
<ellipse style="fill:none;stroke:black;" cx="849" cy="-306" rx="64.8203" ry="18"/>
<text text-anchor="middle" x="849" y="-301.9" style="font-family:Times New Roman;font-size:14.00;">institutions</text>
</g>
<!-- institutions&#45;&gt;archives -->
<g id="edge58" class="edge"><title>institutions&#45;&gt;archives</title>
<path style="fill:none;stroke:black;stroke-width:2;" d="M849,-288C849,-280 849,-271 849,-262"/>
<polygon style="fill:black;stroke:black;" points="852.5,-262 849,-252 845.5,-262 852.5,-262"/>
</g>
<!-- libraries -->
<g id="node28" class="node"><title>libraries</title>
<ellipse style="fill:none;stroke:gray;" cx="966" cy="-234" rx="48.8383" ry="18"/>
<text text-anchor="middle" x="966" y="-229.9" style="font-family:Times New Roman;font-size:14.00;">libraries</text>
</g>
<!-- institutions&#45;&gt;libraries -->
<g id="edge62" class="edge"><title>institutions&#45;&gt;libraries</title>
<path style="fill:none;stroke:black;stroke-width:2;" d="M876,-289C892,-279 913,-266 931,-255"/>
<polygon style="fill:black;stroke:black;" points="932.958,-257.916 940,-250 929.559,-251.797 932.958,-257.916"/>
</g>
<!-- museums -->
<g id="node29" class="node"><title>museums</title>
<ellipse style="fill:none;stroke:gray;" cx="1089" cy="-234" rx="55.7874" ry="18"/>
<text text-anchor="middle" x="1089" y="-229.9" style="font-family:Times New Roman;font-size:14.00;">museums</text>
</g>
<!-- institutions&#45;&gt;museums -->
<g id="edge66" class="edge"><title>institutions&#45;&gt;museums</title>
<path style="fill:none;stroke:black;stroke-width:2;" d="M893,-293C935,-281 995,-262 1038,-249"/>
<polygon style="fill:black;stroke:black;" points="1039.43,-252.226 1048,-246 1037.42,-245.521 1039.43,-252.226"/>
</g>
<!-- loc -->
<g id="node30" class="node"><title>loc</title>
<ellipse style="fill:none;stroke:gray;" cx="558" cy="-234" rx="27" ry="18"/>
<text text-anchor="middle" x="558" y="-229.9" style="font-family:Times New Roman;font-size:14.00;">loc</text>
</g>
<!-- institutions&#45;&gt;loc -->
<g id="edge64" class="edge"><title>institutions&#45;&gt;loc</title>
<path style="fill:none;stroke:black;stroke-width:2;" d="M791,-298C738,-290 660,-275 594,-252 592,-251 590,-251 588,-250"/>
<polygon style="fill:black;stroke:black;" points="589.56,-246.863 579,-246 586.717,-253.26 589.56,-246.863"/>
</g>
<!-- node10 -->
<g id="node31" class="node"><title>node10</title>
<ellipse style="fill:none;stroke:gray;" cx="692" cy="-234" rx="88.9449" ry="18"/>
<text text-anchor="middle" x="692" y="-229.9" style="font-family:Times New Roman;font-size:14.00;">internet&#45;archive</text>
</g>
<!-- institutions&#45;&gt;node10 -->
<g id="edge60" class="edge"><title>institutions&#45;&gt;node10</title>
<path style="fill:none;stroke:black;stroke-width:2;" d="M815,-291C792,-280 762,-267 737,-255"/>
<polygon style="fill:black;stroke:black;" points="738.56,-251.863 728,-251 735.717,-258.26 738.56,-251.863"/>
</g>
<!-- node11 -->
<g id="node32" class="node"><title>node11</title>
<ellipse style="fill:none;stroke:black;" cx="2558" cy="-306" rx="96.7846" ry="18"/>
<text text-anchor="middle" x="2558" y="-301.9" style="font-family:Times New Roman;font-size:14.00;">digital&#45;humanities</text>
</g>
<!-- tei -->
<g id="node33" class="node"><title>tei</title>
<ellipse style="fill:none;stroke:black;" cx="2558" cy="-234" rx="27" ry="18"/>
<text text-anchor="middle" x="2558" y="-229.9" style="font-family:Times New Roman;font-size:14.00;">tei</text>
</g>
<!-- node11&#45;&gt;tei -->
<g id="edge48" class="edge"><title>node11&#45;&gt;tei</title>
<path style="fill:none;stroke:black;" d="M2558,-288C2558,-280 2558,-271 2558,-262"/>
<polygon style="fill:black;stroke:black;" points="2561.5,-262 2558,-252 2554.5,-262 2561.5,-262"/>
</g>
<!-- node12 -->
<g id="node34" class="node"><title>node12</title>
<ellipse style="fill:none;stroke:black;" cx="3074" cy="-306" rx="96.0882" ry="18"/>
<text text-anchor="middle" x="3074" y="-301.9" style="font-family:Times New Roman;font-size:14.00;">academic&#45;libraries</text>
</g>
<!-- node13 -->
<g id="node35" class="node"><title>node13</title>
<ellipse style="fill:none;stroke:black;" cx="2683" cy="-234" rx="80.1057" ry="18"/>
<text text-anchor="middle" x="2683" y="-229.9" style="font-family:Times New Roman;font-size:14.00;">public&#45;libraries</text>
</g>
<!-- node12&#45;&gt;node13 -->
<g id="edge6" class="edge"><title>node12&#45;&gt;node13</title>
<path style="fill:none;stroke:black;" d="M3003,-294C2942,-283 2851,-267 2772,-252 2766,-251 2759,-249 2753,-248"/>
<polygon style="fill:black;stroke:black;" points="2753.49,-244.529 2743,-246 2752.12,-251.393 2753.49,-244.529"/>
</g>
<!-- node14 -->
<g id="node36" class="node"><title>node14</title>
<ellipse style="fill:none;stroke:black;" cx="2863" cy="-234" rx="82.1898" ry="18"/>
<text text-anchor="middle" x="2863" y="-229.9" style="font-family:Times New Roman;font-size:14.00;">school&#45;libraries</text>
</g>
<!-- node12&#45;&gt;node14 -->
<g id="edge10" class="edge"><title>node12&#45;&gt;node14</title>
<path style="fill:none;stroke:black;" d="M3028,-290C2995,-279 2952,-264 2918,-252"/>
<polygon style="fill:black;stroke:black;" points="2918.58,-248.521 2908,-249 2916.57,-255.226 2918.58,-248.521"/>
</g>
<!-- node15 -->
<g id="node37" class="node"><title>node15</title>
<ellipse style="fill:none;stroke:black;" cx="3074" cy="-234" rx="111.181" ry="18"/>
<text text-anchor="middle" x="3074" y="-229.9" style="font-family:Times New Roman;font-size:14.00;">government&#45;libraries</text>
</g>
<!-- node12&#45;&gt;node15 -->
<g id="edge4" class="edge"><title>node12&#45;&gt;node15</title>
<path style="fill:none;stroke:black;" d="M3074,-288C3074,-280 3074,-271 3074,-262"/>
<polygon style="fill:black;stroke:black;" points="3077.5,-262 3074,-252 3070.5,-262 3077.5,-262"/>
</g>
<!-- node16 -->
<g id="node38" class="node"><title>node16</title>
<ellipse style="fill:none;stroke:black;" cx="3301" cy="-234" rx="98.1724" ry="18"/>
<text text-anchor="middle" x="3301" y="-229.9" style="font-family:Times New Roman;font-size:14.00;">corporate&#45;libraries</text>
</g>
<!-- node12&#45;&gt;node16 -->
<g id="edge2" class="edge"><title>node12&#45;&gt;node16</title>
<path style="fill:none;stroke:black;" d="M3123,-290C3158,-279 3205,-265 3241,-253"/>
<polygon style="fill:black;stroke:black;" points="3242.43,-256.226 3251,-250 3240.42,-249.521 3242.43,-256.226"/>
</g>
<!-- node17 -->
<g id="node39" class="node"><title>node17</title>
<ellipse style="fill:none;stroke:black;" cx="3511" cy="-234" rx="93.8091" ry="18"/>
<text text-anchor="middle" x="3511" y="-229.9" style="font-family:Times New Roman;font-size:14.00;">research&#45;libraries</text>
</g>
<!-- node12&#45;&gt;node17 -->
<g id="edge8" class="edge"><title>node12&#45;&gt;node17</title>
<path style="fill:none;stroke:black;" d="M3147,-294C3214,-283 3318,-267 3408,-252 3416,-251 3423,-249 3431,-248"/>
<polygon style="fill:black;stroke:black;" points="3431.88,-251.393 3441,-246 3430.51,-244.529 3431.88,-251.393"/>
</g>
<!-- node18 -->
<g id="node40" class="node"><title>node18</title>
<ellipse style="fill:none;stroke:black;" cx="3856" cy="-306" rx="55.7874" ry="18"/>
<text text-anchor="middle" x="3856" y="-301.9" style="font-family:Times New Roman;font-size:14.00;">e&#45;readers</text>
</g>
<!-- ebooks -->
<g id="node41" class="node"><title>ebooks</title>
<ellipse style="fill:none;stroke:black;" cx="3667" cy="-234" rx="43.9728" ry="18"/>
<text text-anchor="middle" x="3667" y="-229.9" style="font-family:Times New Roman;font-size:14.00;">ebooks</text>
</g>
<!-- node18&#45;&gt;ebooks -->
<g id="edge52" class="edge"><title>node18&#45;&gt;ebooks</title>
<path style="fill:none;stroke:black;" d="M3820,-292C3788,-280 3742,-263 3709,-250"/>
<polygon style="fill:black;stroke:black;" points="3709.58,-246.464 3699,-246 3706.98,-252.964 3709.58,-246.464"/>
</g>
<!-- node19 -->
<g id="node42" class="node"><title>node19</title>
<ellipse style="fill:none;stroke:black;" cx="3795" cy="-234" rx="66.2071" ry="18"/>
<text text-anchor="middle" x="3795" y="-229.9" style="font-family:Times New Roman;font-size:14.00;">e&#45;resources</text>
</g>
<!-- node18&#45;&gt;node19 -->
<g id="edge50" class="edge"><title>node18&#45;&gt;node19</title>
<path style="fill:none;stroke:black;" d="M3841,-289C3834,-280 3825,-269 3817,-260"/>
<polygon style="fill:black;stroke:black;" points="3819.22,-257.221 3810,-252 3813.95,-261.831 3819.22,-257.221"/>
</g>
<!-- kindle -->
<g id="node43" class="node"><title>kindle</title>
<ellipse style="fill:none;stroke:gray;" cx="3918" cy="-234" rx="39.1069" ry="18"/>
<text text-anchor="middle" x="3918" y="-229.9" style="font-family:Times New Roman;font-size:14.00;">kindle</text>
</g>
<!-- node18&#45;&gt;kindle -->
<g id="edge54" class="edge"><title>node18&#45;&gt;kindle</title>
<path style="fill:none;stroke:black;stroke-width:2;" d="M3871,-289C3879,-280 3888,-268 3897,-259"/>
<polygon style="fill:black;stroke:black;" points="3899.8,-261.1 3903,-251 3894.2,-256.9 3899.8,-261.1"/>
</g>
<!-- nook -->
<g id="node44" class="node"><title>nook</title>
<ellipse style="fill:none;stroke:black;" cx="4009" cy="-234" rx="34.2406" ry="18"/>
<text text-anchor="middle" x="4009" y="-229.9" style="font-family:Times New Roman;font-size:14.00;">nook</text>
</g>
<!-- node18&#45;&gt;nook -->
<g id="edge56" class="edge"><title>node18&#45;&gt;nook</title>
<path style="fill:none;stroke:black;stroke-width:2;" d="M3888,-291C3913,-279 3948,-262 3975,-250"/>
<polygon style="fill:black;stroke:black;" points="3976.28,-253.26 3984,-246 3973.44,-246.863 3976.28,-253.26"/>
</g>
</g>
</svg>
